<svg xmlns="http://www.w3.org/2000/svg" width="22" height="18" viewBox="0 0 22 18">
  <defs>
    <style>
      .cls-1 {
        fill: #fff;
        fill-rule: evenodd;
      }
    </style>
  </defs>
  <path id="scooter_icon" data-name="scooter icon" class="cls-1" d="M1126.6,1286h0.22a1.013,1.013,0,0,1,.91.51,2.723,2.723,0,0,1-.05,1.67c-0.33.59-1.16,0.3-1.81,0.23a21.922,21.922,0,0,0,2.37,5.34c0.46,0.76,1.14,1.29,1.13,2.41,1.81,0.18,3.29.7,3.63,2.46a0.6,0.6,0,0,1-.56.05,3.6,3.6,0,0,1-2.42,5.34,3.24,3.24,0,0,1-3.46-2.65c-0.84.19-1.12-.58-1.04-1.53a20.043,20.043,0,0,1-7.09.46,3.347,3.347,0,0,1-3.59,3.72,3.617,3.617,0,0,1-2.51-5.15,2.244,2.244,0,0,1-1.25-1.26,6.906,6.906,0,0,1,.69-3.8,12.706,12.706,0,0,0,5.62.18c0.47-.11,1.33-0.52,1.6-0.14a1.994,1.994,0,0,1-.08,1.16c-0.36,1.98.24,2.8,1.94,2.88,2.08,0.1,3.54-.43,4.19-1.76,1.22-2.48.01-5.52-.51-7.75-0.34.14-.73,0.47-1.21,0.74-0.4.23-1.27,0.52-1.26-.23,0.01-.51.77-0.7,1.17-0.88,0.54-.25.94-0.44,1.38-0.65C1124.78,1286.36,1125.64,1286.12,1126.6,1286Zm1.21,14.9a1.958,1.958,0,0,0,1.9,1.67,2,2,0,0,0,1.86-2.09,1.672,1.672,0,0,0-1.12-1.72,10.2,10.2,0,0,0-1.04.28c0.01,0.47.91,0.85,0.91,1.49a0.641,0.641,0,0,1-.69.69c-0.75-.04-0.93-1.22-1.52-1.58A1.383,1.383,0,0,0,1127.81,1300.9Zm-14.18-1.49a2.055,2.055,0,0,0,1.6,3.16,1.948,1.948,0,0,0,1.82-2.41,5.547,5.547,0,0,0-.61-0.1c-0.47.32-.59,1.22-1.3,1.16a0.682,0.682,0,0,1-.56-0.79c0.03-.3.35-0.45,0.31-0.65C1114.5,1299.63,1114.03,1299.56,1113.63,1299.41Zm5.71-7c-0.93.67-2.48,0.69-4.15,0.69a19.484,19.484,0,0,1-2.29-.09c-0.5-.07-1.65-0.23-1.73-0.7a0.9,0.9,0,0,1,.82-0.93,40.8,40.8,0,0,1,4.15,0C1117.48,1291.38,1119.45,1291.02,1119.34,1292.41Z" transform="translate(-1111 -1286)"/>
</svg>
